<?xml version="1.0" encoding="UTF-8"?>
<svg id="Lag_1" xmlns="http://www.w3.org/2000/svg" version="1.1" viewBox="0 0 536 323">
  <!-- Generator: Adobe Illustrator 29.3.1, SVG Export Plug-In . SVG Version: 2.1.0 Build 151)  -->
  <defs>
    <style>
      .st0 {
        fill: #fff;
      }
    </style>
  </defs>
  <g id="Layer_1">
    <path class="st0" d="M216.65,32.84c-.5-.51-1.14-.95-1.91-1.33l3.86-8.02c.64-1.8.66-3.15.06-4.14-.49-.8-1.36-1.29-2.58-1.45-2.55-.33-4.74.71-6.56,3.25l-3.31,7.18c-2.83-.71-5.73-1.17-8.62-1.35-3.1-.2-5.47-.1-7.12.3-3.17.03-6.13,1.83-8.82,5.34-2.61,3.41-4.7,7.44-6.21,11.96-1.5,4.52-2.32,9.1-2.41,13.6-.1,4.65.92,8.08,3.04,10.2,1.25,1.25,2.68,2.21,4.26,2.84,1.33.53,2.73,1.16,4.28,1.92l-3.03,6.62-.06.19c-.25,1.63-.04,2.89.63,3.75.56.72,1.42,1.15,2.56,1.26.25.02.5.03.74.03,1.99,0,3.79-.78,5.34-2.33l.16-.23c.59-1.38,1.14-2.62,1.63-3.7.4-.89.86-1.78,1.36-2.64,4.93.51,9.74-.39,14.36-2.65,4.75-2.32,8.55-5.51,11.29-9.46,2.75-3.97,4.19-8.61,4.29-13.79.1-5.19-1.8-10.49-5.72-15.85l-1.49-1.49h-.02ZM195.4,50.58c-.69,1.39-1.53,3.02-2.52,4.89-.95,1.8-2.35,4.74-4.19,8.76-.78-.35-1.63-.79-2.53-1.31-1.13-.66-2.19-1.47-3.18-2.47-.81-.64-1.21-1.67-1.21-3.14,0-1.62.24-3.25.71-4.85.48-1.65.98-3.24,1.48-4.73.59-1.79.98-2.36,1.16-2.54l.1-.12c1.71-2.66,4.07-4.82,7.02-6.44,1.57-.86,3.29-1.29,5.1-1.29,1.29,0,2.67.22,4.09.65-1.58,3.5-2.81,6.14-3.67,7.85l-2.38,4.76.02-.02ZM212.22,57.54c-1.32,2.35-3.34,4.42-6,6.13-2.32,1.49-4.89,2.34-7.65,2.52l10.97-23.59c2.37,2.25,3.74,4.68,4.08,7.21.37,2.8-.1,5.4-1.4,7.72h0Z"/>
    <path class="st0" d="M282.86,18.79v-.6l-.03-.2c-.47-1.62-1.43-2.69-2.85-3.17l-.23-.04c-3.89,0-7.92,1.29-11.99,3.83-4.01,2.51-7.76,5.66-11.15,9.35-3.4,3.7-6.34,7.7-8.72,11.88-1.69,2.95-2.95,5.69-3.76,8.18-.73-3.49-1.41-7-2.02-10.48-.79-4.41-1.28-8.93-1.48-13.5-.46-3.65-2.17-5.13-4.85-4.16-2.44.89-3.9,2.78-4.34,5.63v.15c.59,10.51,2,19.96,4.19,28.1,2.12,7.88,4.22,15.99,6.24,24.08l.09.21c1.03,1.63,2.19,2.46,3.43,2.46.7,0,1.4-.26,2.09-.78,1.71-1.29,2.81-2.82,3.24-4.57l.03-.11v-.12c-.8-11.13.64-21.12,4.25-29.7,3.53-8.4,10.53-15.31,20.81-20.54,1.36.89,2.97.71,4.68-.57,1.79-1.35,2.59-3.17,2.37-5.34h0Z"/>
    <path class="st0" d="M341.35,77.06c.05-.41.11-.82.16-1.23.48-10.21-.96-18.61-4.33-24.91-3.64-6.76-8.31-11.32-13.91-13.56s-11.69-2.14-18.08.29c-5.74,2.19-10.92,6.23-15.43,12.03l.5-14.43c-.46-3.66-2.17-5.13-4.84-4.17-2.44.89-3.9,2.78-4.35,5.72-.19,6.13-.35,10.97-.45,17.13-.1,6.01-.35,12.25-.75,18.6v1.19l.03.19c.7,2.56,2.02,3.77,3.79,3.51,1.45-.21,2.73-.9,3.8-2.08h.18s.02-.04.04-.06c.35-.81.65-1.63,1.05-2.42.11-.21.22-.43.34-.64,2.14-9.81,5.65-16.93,10.44-21.14,4.77-4.2,9.63-6.04,14.45-5.47s9.16,3.42,12.88,8.48c3.75,5.09,5.55,12.4,5.36,21.72v3.57l.03.21c.71,2.31,1.85,3.48,3.39,3.48.47,0,.96-.12,1.48-.34,1.8-.8,3.06-2.07,3.77-3.79,0-.16.03-.33.11-.51v.07c0-.24.07-.45.17-.62.05-.23.08-.45.13-.68,0-.05.03-.09.05-.13h0Z"/>
    <path class="st0" d="M409.13,69.94c-.51-.87-1.32-1.44-2.41-1.69-1.11-.25-2.41.18-4.04,1.33-11.84,9.52-21.74,13.43-29.41,11.61-7.41-1.76-11.84-7.38-13.54-17.17,2.38.56,5,.67,7.81.32,3.23-.4,6.4-1.27,9.43-2.58,3.03-1.31,5.75-3.06,8.08-5.19,2.35-2.15,4.07-4.6,5.1-7.27,1.04-2.72,1.1-5.63.17-8.66-.93-2.98-3.15-6.14-6.64-9.42-1.99-1.59-4.32-3.42-6.99-5.51-2.83-2.2-6.03-3-9.36-2.38-4.75.83-8.52,3.39-11.19,7.62-2.61,4.11-4.54,8.85-5.75,14.06-1.2,5.2-1.65,10.47-1.35,15.67.3,5.21,1.07,9.38,2.29,12.44,3.01,7.05,6.71,12.01,10.98,14.75,3.85,2.47,8.05,3.73,12.49,3.73.49,0,.99-.02,1.48-.05,4.94-.3,10.14-1.83,15.46-4.54,5.27-2.69,10.56-6.17,15.8-10.39,1.09-1.1,1.76-2.28,1.99-3.51.23-1.25.1-2.32-.38-3.18h-.02ZM359,52.4c.39-3.62.97-7.29,1.74-10.93.93-4.27,2.42-6.79,4.43-7.49,2.07-.72,4.2-.44,6.38.83,2.27,1.33,4.4,3.36,6.32,6.04,1.83,2.56,2.97,5.06,3.39,7.43-.77,1-2.16,1.98-4.15,2.94-2.22,1.06-4.57,1.9-6.99,2.48-1.8.43-3.57.65-5.24.65-.56,0-1.12-.02-1.67-.07-1.95-.16-3.33-.77-4.21-1.86v-.02Z"/>
    <path class="st0" d="M149.61,40.42c-1.05-.1-2.12-.16-3.19-.2,1.62-1.12,3.15-2.23,4.54-3.33,2-1.57,3.69-3.18,5.01-4.8,1.59-1.94,2.45-3.9,2.62-6.04.05-3.49-1-6.27-3.11-8.28-1.82-1.72-4.09-3.05-6.76-3.93-2.47-.82-11.07-3.71-14.44-3.62l-4.37-.21v-.2c-.61-3.19-2.67-4.21-4.39-4.11-.51.03-1.03.16-1.54.38-1.73.75-2.88,2.17-3.31,4.03-.39,0-.84,0-1.44-.04-1.27.08-2.43.6-3.35,1.51-.79.8-1.31,1.72-1.55,2.74-.27,1.15-.13,2.31.4,3.35.88,1.69,3.69,2.66,6.51,2.66l.05.57c.59,7.17,1.57,19.09,2.53,29.45.88,9.38,1.62,18.37,2.28,27.44-.22-.11-.42-.23-.62-.35-.72-.51-1.44-1.22-2.07-2.05-.88-1.17-1.78-2.21-2.65-3.08l-.31-.32-.68-.34c-2.36-.91-4.72-.12-5.93,1.95-1.06,1.8-1.05,3.81.05,5.72l.32.43c.84.91,1.61,1.91,2.29,2.96,1.13,1.76,2.7,2.97,4.66,3.59,2.37.74,4.92,1.03,7.59.87,2.14-.13,4.39-.55,6.7-1.25,4.92-1.49,9.68-3.76,14.14-6.74,4.44-2.96,8.39-6.41,11.74-10.25,3.49-4,5.72-7.96,6.62-11.77,1.01-4.34,0-8.16-3.01-11.36-2.86-3.05-7.88-4.81-15.33-5.36v-.02ZM130.8,19.92c1.38.06,2.82.06,4.3.25,4.99.64,10.82,3.17,12.12,4.38.46.43.95.72,1.25,1.12-.98,1.14-2.06,2.22-3.2,3.22-1.62,1.42-3.36,2.8-5.18,4.09-1.89,1.34-3.79,2.66-5.73,3.95-.6.4-1.19.81-1.78,1.24l-1.79-18.24h.01ZM157.31,57.97c-1.62,2.68-3.79,5.35-6.64,8.14-2.69,2.64-5.78,5.08-9.21,7.25-2.02,1.28-4.02,2.32-5.97,3.1l-.94-11.78c-.35-4.43-.69-8.13-1.08-12.2l5.18-.31c.38-.02.75-.07,1.13-.14.86-.12,1.71-.27,2.54-.45,1.52-.32,2.93-.63,4.37-.56.76.04,1.51.05,2.25.06,1.85.03,3.6.05,5.3.46,1.84.45,3.51.89,5.01,1.7-.18,1.31-.8,2.83-1.94,4.72h0Z"/>
    <polygon class="st0" points="27.96 60.72 15.35 60.72 15.35 60.72 9.03 60.72 9.03 73.52 15.35 73.52 15.35 208.72 39.75 208.72 39.75 207.32 39.75 60.72 27.96 60.72"/>
    <path class="st0" d="M172.17,107.32l.6,6.4c5.8-5.4,13.6-7.8,25-7.8,28,0,38.8,19.2,38.8,51.4s-10.8,51.4-38.8,51.4c-10.6,0-17.8-2.2-23.6-6.8v55.8h-24.4V107.32h22.4ZM192.97,196.32c13.2,0,18.8-14,18.8-39s-5.6-39-18.8-39-18.6,13.2-18.8,37v2c0,25,5.6,39,18.8,39Z"/>
    <path class="st0" d="M420.89,189.95c-1.55-.17-3.17-.36-4.74-.28-.79.18-1.59.39-2.37.66-2.94,1.61-10.78,5.99-23.01,5.99s-20.6-14.8-20.8-37.4h60c0-33.2-13.8-53-41.6-53s-43.6,19.2-43.6,51.4c0,30.2,20.4,51.4,46,51.4,17.8,0,33.4-10.8,33.4-15.8,0-1.33-.97-2.36-3.28-2.97h0ZM388.37,118.32c10.2,0,15.2,11,16.6,27.8h-34.8c1.6-16.8,7.6-27.8,18.2-27.8Z"/>
    <path class="st0" d="M462.97,107.32l1,8.4c5.8-6.4,14.2-9.8,26.4-9.8,28.4,0,36.6,19.2,36.6,51.4v50h-24.4v-50c0-25-5.6-39-18.8-39s-18.6,13.2-18.8,37v52h-24.4v-100h22.4Z"/>
    <path class="st0" d="M95.77,105.92c27.8,0,43.6,19.2,43.6,51.4s-15.8,51.4-43.6,51.4-43.6-19.2-43.6-51.4,15.8-51.4,43.6-51.4ZM95.77,195.52c13.2,0,18.8-13.2,18.8-38.2s-5.6-38.2-18.8-38.2-18.8,13.2-18.8,38.2,5.6,38.2,18.8,38.2Z"/>
    <path class="st0" d="M271.57,107.32l.6,6.4c5.8-5.4,13.6-7.8,25-7.8,28,0,38.8,19.2,38.8,51.4s-10.8,51.4-38.8,51.4c-10.6,0-17.8-2.2-23.6-6.8v55.8h-24.4V107.32h22.4ZM292.37,196.32c13.2,0,18.8-14,18.8-39s-5.6-39-18.8-39-18.6,13.2-18.8,37v2c0,25,5.6,39,18.8,39Z"/>
  </g>
  <g id="Lag_3">
    <g>
      <path class="st0" d="M63.34,283.47c-.81-1.71-1.99-3.03-3.53-3.97-1.54-.94-3.33-1.41-5.38-1.41s-3.88.47-5.52,1.41c-1.64.94-2.93,2.28-3.86,4.03-.94,1.75-1.41,3.77-1.41,6.07s.47,4.31,1.41,6.05,2.23,3.07,3.86,4.01c1.64.94,3.48,1.41,5.52,1.41,2.86,0,5.21-.85,7.06-2.56s2.93-4.02,3.23-6.93h-11.68v-3.11h15.75v2.94c-.22,2.41-.98,4.61-2.27,6.61-1.29,2-2.98,3.58-5.08,4.75-2.1,1.16-4.44,1.74-7.01,1.74-2.72,0-5.19-.64-7.43-1.91-2.24-1.27-4.01-3.04-5.31-5.31s-1.95-4.83-1.95-7.69.65-5.42,1.95-7.71c1.3-2.28,3.07-4.06,5.31-5.33s4.72-1.91,7.43-1.91c3.11,0,5.86.77,8.25,2.31s4.14,3.71,5.23,6.51h-4.58,0Z"/>
      <path class="st0" d="M94.71,294.18h-18.4c.14,2.27.92,4.04,2.33,5.31,1.41,1.27,3.13,1.91,5.15,1.91,1.65,0,3.03-.38,4.14-1.15,1.11-.77,1.88-1.8,2.33-3.09h4.12c-.62,2.21-1.85,4.01-3.7,5.4s-4.14,2.08-6.89,2.08c-2.18,0-4.14-.49-5.86-1.47-1.72-.98-3.07-2.37-4.05-4.18-.98-1.81-1.47-3.9-1.47-6.28s.48-4.47,1.43-6.26c.95-1.79,2.29-3.17,4.01-4.14,1.72-.97,3.7-1.45,5.94-1.45s4.12.48,5.8,1.43,2.98,2.26,3.89,3.93,1.36,3.55,1.36,5.65c0,.73-.04,1.5-.13,2.31h0ZM89.92,287.31c-.64-1.05-1.52-1.85-2.62-2.39-1.11-.55-2.33-.82-3.67-.82-1.93,0-3.58.62-4.94,1.85-1.36,1.23-2.14,2.94-2.33,5.12h14.53c0-1.46-.32-2.71-.97-3.76h0Z"/>
      <path class="st0" d="M117.89,283.36c1.74,1.69,2.6,4.14,2.6,7.33v13.57h-3.78v-13.02c0-2.3-.57-4.05-1.72-5.27-1.15-1.22-2.72-1.83-4.7-1.83s-3.62.63-4.81,1.89-1.78,3.09-1.78,5.5v12.73h-3.82v-23.02h3.82v3.28c.76-1.18,1.78-2.08,3.09-2.73,1.3-.64,2.74-.97,4.31-.97,2.8,0,5.07.85,6.8,2.54h0Z"/>
      <path class="st0" d="M134.02,282.17c1.51-.87,3.23-1.3,5.17-1.3,2.07,0,3.93.49,5.59,1.47,1.65.98,2.95,2.36,3.91,4.14.95,1.78,1.43,3.84,1.43,6.2s-.48,4.4-1.43,6.22c-.95,1.82-2.26,3.23-3.93,4.24-1.67,1.01-3.52,1.51-5.56,1.51s-3.73-.43-5.23-1.3-2.62-1.97-3.38-3.32v4.24h-3.82v-31.08h3.82v12.35c.78-1.37,1.93-2.49,3.44-3.36h-.01ZM145.15,288.13c-.7-1.29-1.65-2.27-2.83-2.94-1.19-.67-2.5-1.01-3.93-1.01s-2.7.34-3.89,1.03-2.14,1.68-2.86,2.98c-.71,1.3-1.07,2.81-1.07,4.52s.36,3.25,1.07,4.56,1.67,2.3,2.86,2.98c1.19.69,2.48,1.03,3.89,1.03s2.74-.34,3.93-1.03,2.13-1.68,2.83-2.98c.7-1.3,1.05-2.83,1.05-4.6s-.35-3.25-1.05-4.54h0Z"/>
      <path class="st0" d="M161.85,281.91c1.25-.73,2.76-1.09,4.56-1.09v3.95h-1.01c-4.28,0-6.43,2.33-6.43,6.97v12.52h-3.82v-23.02h3.82v3.74c.67-1.32,1.63-2.34,2.88-3.07h0Z"/>
      <path class="st0" d="M191.22,281.24v23.02h-3.82v-3.4c-.73,1.18-1.74,2.09-3.05,2.75-1.3.66-2.74.99-4.3.99-1.79,0-3.4-.37-4.83-1.11s-2.56-1.85-3.38-3.34c-.83-1.48-1.24-3.29-1.24-5.42v-13.48h3.78v12.98c0,2.27.57,4.01,1.72,5.23s2.72,1.83,4.7,1.83,3.65-.63,4.83-1.89,1.76-3.09,1.76-5.5v-12.64h3.82v-.02Z"/>
      <path class="st0" d="M212.41,282.17c1.5.87,2.61,1.96,3.34,3.28v-4.2h3.87v23.52c0,2.1-.45,3.97-1.34,5.61-.9,1.64-2.18,2.92-3.84,3.84s-3.61,1.39-5.82,1.39c-3.03,0-5.54-.71-7.56-2.14s-3.21-3.38-3.57-5.84h3.78c.42,1.4,1.29,2.53,2.6,3.38s2.9,1.28,4.75,1.28c2.1,0,3.81-.66,5.14-1.97s1.99-3.16,1.99-5.54v-4.83c-.76,1.34-1.88,2.46-3.36,3.36-1.48.9-3.22,1.34-5.21,1.34s-3.9-.5-5.56-1.51c-1.67-1.01-2.98-2.42-3.93-4.24-.95-1.82-1.43-3.89-1.43-6.22s.48-4.42,1.43-6.2c.95-1.78,2.26-3.16,3.93-4.14,1.67-.98,3.52-1.47,5.56-1.47s3.73.43,5.23,1.3h0ZM214.7,288.17c-.7-1.29-1.65-2.27-2.84-2.96s-2.5-1.03-3.93-1.03-2.73.34-3.91,1.01-2.12,1.65-2.81,2.94c-.7,1.29-1.05,2.8-1.05,4.54s.35,3.3,1.05,4.6c.7,1.3,1.64,2.3,2.81,2.98,1.18.69,2.48,1.03,3.91,1.03s2.74-.34,3.93-1.03,2.13-1.68,2.84-2.98c.7-1.3,1.05-2.82,1.05-4.56s-.35-3.25-1.05-4.54h0Z"/>
      <path class="st0" d="M237.42,276.75c-.5-.5-.76-1.12-.76-1.85s.25-1.34.76-1.85,1.12-.76,1.85-.76,1.29.25,1.79.76c.49.5.73,1.12.73,1.85s-.25,1.34-.73,1.85c-.49.5-1.09.76-1.79.76s-1.34-.25-1.85-.76ZM241.12,281.24v23.02h-3.82v-23.02h3.82Z"/>
      <path class="st0" d="M266.11,282.17c1.51-.87,3.23-1.3,5.17-1.3,2.07,0,3.93.49,5.59,1.47,1.65.98,2.95,2.36,3.91,4.14.95,1.78,1.43,3.84,1.43,6.2s-.48,4.4-1.43,6.22c-.95,1.82-2.26,3.23-3.93,4.24s-3.52,1.51-5.57,1.51-3.73-.43-5.23-1.3-2.62-1.97-3.38-3.32v4.24h-3.82v-31.08h3.82v12.35c.78-1.37,1.93-2.49,3.44-3.36h0ZM277.24,288.13c-.7-1.29-1.65-2.27-2.83-2.94-1.19-.67-2.5-1.01-3.93-1.01s-2.7.34-3.88,1.03c-1.19.69-2.14,1.68-2.86,2.98-.71,1.3-1.07,2.81-1.07,4.52s.36,3.25,1.07,4.56,1.67,2.3,2.86,2.98c1.19.69,2.48,1.03,3.88,1.03s2.74-.34,3.93-1.03,2.13-1.68,2.83-2.98,1.05-2.83,1.05-4.6-.35-3.25-1.05-4.54h0Z"/>
      <path class="st0" d="M306.26,284.6c.9,1.04,1.59,2.24,2.08,3.61s.74,2.87.74,4.49c0,2.38-.53,4.47-1.58,6.28-1.05,1.81-2.47,3.2-4.26,4.18-1.79.98-3.78,1.47-5.96,1.47-2.72,0-5.11-.77-7.18-2.31l-1.76,1.93h-2.73l3.02-3.32c-.9-1.06-1.59-2.29-2.08-3.67-.49-1.39-.74-2.9-.74-4.56,0-2.35.51-4.43,1.53-6.24s2.42-3.19,4.18-4.16,3.74-1.45,5.92-1.45c2.83,0,5.28.8,7.35,2.39l1.81-2.02h2.73l-3.07,3.36v.02ZM291.18,298.17l11.17-12.26c-1.34-1.15-3-1.72-4.96-1.72-1.4,0-2.68.32-3.84.95s-2.09,1.59-2.79,2.88-1.05,2.86-1.05,4.7c0,2.16.49,3.98,1.47,5.46h0ZM303.7,287.42l-11.17,12.26c1.32,1.06,2.9,1.6,4.75,1.6,1.37,0,2.66-.32,3.86-.97,1.2-.64,2.18-1.61,2.92-2.9s1.11-2.86,1.11-4.7c0-2.16-.49-3.92-1.47-5.29Z"/>
      <path class="st0" d="M320.81,281.91c1.25-.73,2.77-1.09,4.56-1.09v3.95h-1.01c-4.28,0-6.43,2.33-6.43,6.97v12.52h-3.82v-23.02h3.82v3.74c.67-1.32,1.63-2.34,2.88-3.07h0Z"/>
      <path class="st0" d="M347.8,283.36c1.74,1.69,2.6,4.14,2.6,7.33v13.57h-3.78v-13.02c0-2.3-.57-4.05-1.72-5.27s-2.72-1.83-4.7-1.83-3.62.63-4.81,1.89-1.79,3.09-1.79,5.5v12.73h-3.82v-23.02h3.82v3.28c.76-1.18,1.79-2.08,3.09-2.73,1.3-.64,2.74-.97,4.31-.97,2.8,0,5.07.85,6.8,2.54Z"/>
      <path class="st0" d="M377.53,294.18h-18.4c.14,2.27.92,4.04,2.33,5.31s3.13,1.91,5.15,1.91c1.65,0,3.03-.38,4.14-1.15s1.88-1.8,2.33-3.09h4.12c-.62,2.21-1.85,4.01-3.7,5.4-1.85,1.39-4.14,2.08-6.89,2.08-2.18,0-4.14-.49-5.86-1.47s-3.07-2.37-4.05-4.18-1.47-3.9-1.47-6.28.48-4.47,1.43-6.26c.95-1.79,2.29-3.17,4.01-4.14,1.72-.97,3.7-1.45,5.94-1.45s4.12.48,5.8,1.43,2.97,2.26,3.88,3.93c.91,1.67,1.37,3.55,1.37,5.65,0,.73-.04,1.5-.13,2.31h0ZM372.75,287.31c-.64-1.05-1.52-1.85-2.62-2.39-1.11-.55-2.33-.82-3.68-.82-1.93,0-3.58.62-4.93,1.85-1.36,1.23-2.14,2.94-2.33,5.12h14.53c0-1.46-.32-2.71-.97-3.76h0Z"/>
      <path class="st0" d="M398.83,281.93c1.4.74,2.5,1.86,3.3,3.34.8,1.48,1.2,3.29,1.2,5.42v13.57h-3.78v-13.02c0-2.3-.57-4.05-1.72-5.27s-2.72-1.83-4.7-1.83-3.62.63-4.81,1.89-1.79,3.09-1.79,5.5v12.73h-3.82v-31.08h3.82v11.34c.76-1.18,1.8-2.08,3.13-2.73s2.82-.97,4.47-.97c1.74,0,3.3.37,4.7,1.11Z"/>
      <path class="st0" d="M428.61,284.6c.9,1.04,1.59,2.24,2.08,3.61s.74,2.87.74,4.49c0,2.38-.53,4.47-1.58,6.28-1.05,1.81-2.47,3.2-4.26,4.18-1.79.98-3.78,1.47-5.96,1.47-2.72,0-5.11-.77-7.18-2.31l-1.76,1.93h-2.73l3.02-3.32c-.9-1.06-1.59-2.29-2.08-3.67-.49-1.39-.74-2.9-.74-4.56,0-2.35.51-4.43,1.53-6.24s2.42-3.19,4.18-4.16,3.74-1.45,5.92-1.45c2.83,0,5.28.8,7.35,2.39l1.81-2.02h2.73l-3.07,3.36v.02ZM413.53,298.17l11.17-12.26c-1.34-1.15-3-1.72-4.96-1.72-1.4,0-2.68.32-3.84.95s-2.09,1.59-2.79,2.88-1.05,2.86-1.05,4.7c0,2.16.49,3.98,1.47,5.46h0ZM426.04,287.42l-11.17,12.26c1.32,1.06,2.9,1.6,4.75,1.6,1.37,0,2.66-.32,3.86-.97,1.2-.64,2.18-1.61,2.92-2.9s1.11-2.86,1.11-4.7c0-2.16-.49-3.92-1.47-5.29Z"/>
      <path class="st0" d="M440.41,309.26c0,2.04-.52,3.54-1.55,4.49-1.04.95-2.55,1.43-4.54,1.43h-2.23v-3.23h1.6c1.06,0,1.81-.21,2.25-.63.43-.42.65-1.13.65-2.14v-27.93h3.82v28.01h0ZM436.69,276.75c-.49-.5-.73-1.12-.73-1.85s.24-1.34.73-1.85c.49-.5,1.1-.76,1.83-.76s1.34.25,1.83.76c.49.5.73,1.12.73,1.85s-.25,1.34-.73,1.85c-.49.5-1.1.76-1.83.76s-1.34-.25-1.83-.76Z"/>
      <path class="st0" d="M446.88,286.47c.95-1.78,2.26-3.16,3.93-4.14,1.67-.98,3.53-1.47,5.61-1.47,1.79,0,3.46.41,5,1.24s2.72,1.91,3.53,3.25v-12.18h3.86v31.08h-3.86v-4.33c-.76,1.37-1.88,2.5-3.36,3.38s-3.22,1.32-5.21,1.32-3.9-.5-5.56-1.51c-1.67-1.01-2.98-2.42-3.93-4.24s-1.43-3.89-1.43-6.22.48-4.42,1.43-6.2v.02ZM463.88,288.17c-.7-1.29-1.65-2.27-2.83-2.96-1.19-.69-2.5-1.03-3.93-1.03s-2.73.34-3.91,1.01-2.11,1.65-2.81,2.94-1.05,2.8-1.05,4.54.35,3.3,1.05,4.6,1.64,2.3,2.81,2.98,2.48,1.03,3.91,1.03,2.74-.34,3.93-1.03,2.13-1.68,2.83-2.98,1.05-2.82,1.05-4.56-.35-3.25-1.05-4.54h0Z"/>
      <path class="st0" d="M496.14,294.18h-18.4c.14,2.27.92,4.04,2.33,5.31s3.13,1.91,5.15,1.91c1.65,0,3.03-.38,4.14-1.15s1.88-1.8,2.33-3.09h4.12c-.62,2.21-1.85,4.01-3.7,5.4-1.85,1.39-4.14,2.08-6.89,2.08-2.18,0-4.14-.49-5.86-1.47s-3.07-2.37-4.05-4.18-1.47-3.9-1.47-6.28.48-4.47,1.43-6.26c.95-1.79,2.29-3.17,4.01-4.14,1.72-.97,3.7-1.45,5.94-1.45s4.12.48,5.8,1.43,2.97,2.26,3.88,3.93c.91,1.67,1.37,3.55,1.37,5.65,0,.73-.04,1.5-.13,2.31h0ZM491.35,287.31c-.64-1.05-1.52-1.85-2.62-2.39-1.11-.55-2.33-.82-3.68-.82-1.93,0-3.58.62-4.93,1.85-1.36,1.23-2.14,2.94-2.33,5.12h14.53c0-1.46-.32-2.71-.97-3.76h0Z"/>
    </g>
  </g>
</svg>